<svg width="24.000000" height="24.000000" viewBox="0 0 24 24" fill="none" xmlns="http://www.w3.org/2000/svg" xmlns:xlink="http://www.w3.org/1999/xlink">
	<desc>
			Created with Pixso.
	</desc>
	<defs/>
	<path d="M12 2C13.0609 2 14.0783 2.42142 14.8284 3.17157C15.5786 3.92172 16 4.93915 16 6L18.035 6C18.5532 5.99994 19.0511 6.20099 19.4241 6.56082C19.7969 6.92062 20.0156 7.41113 20.034 7.92899L20.462 19.929C20.4716 20.1974 20.4269 20.4649 20.3308 20.7157C20.2347 20.9665 20.0891 21.1953 19.9026 21.3886C19.7162 21.5819 19.4927 21.7356 19.2455 21.8407C18.9984 21.9457 18.7325 21.9999 18.464 22L5.53601 22C5.26746 21.9999 5.00165 21.9457 4.75452 21.8407C4.50732 21.7356 4.28387 21.5819 4.09741 21.3886C3.91095 21.1953 3.76532 20.9665 3.66919 20.7157C3.57306 20.4649 3.52844 20.1974 3.53802 19.929L3.966 7.92899C3.98438 7.41113 4.20306 6.92062 4.57593 6.56082C4.94885 6.20099 5.44684 5.99994 5.96503 6L8 6C8 4.93915 8.42145 3.92172 9.17157 3.17157C9.92169 2.42142 10.9391 2 12 2ZM8 8L5.96503 8L5.53601 20L18.464 20L18.035 8L16 8L16 9C15.9997 9.25488 15.9021 9.50003 15.7272 9.68536C15.5522 9.8707 15.313 9.98224 15.0586 9.99716C14.8041 10.0121 14.5536 9.92932 14.3582 9.76575C14.1627 9.60214 14.0371 9.37009 14.007 9.117L14 9L14 8L10 8L10 9C9.99969 9.25488 9.9021 9.50003 9.72717 9.68536C9.55219 9.8707 9.31305 9.98224 9.05859 9.99716C8.80414 10.0121 8.55365 9.92932 8.35815 9.76575C8.16272 9.60214 8.03711 9.37009 8.00702 9.117L8 9L8 8ZM12 4C11.4954 3.99985 11.0095 4.1904 10.6395 4.53351C10.2695 4.87659 10.0428 5.34683 10.005 5.85001L10 6L14 6C14 5.46957 13.7893 4.96085 13.4142 4.58578C13.0391 4.21072 12.5305 4 12 4Z" fill="#5C5C5E" fill-opacity="1.000000" fill-rule="nonzero"/>
</svg>
